<svg version="1.1" xmlns="http://www.w3.org/2000/svg" xmlns:xlink="http://www.w3.org/1999/xlink" width="500" height="500">
    <g data-paper-data="{&quot;description&quot;:&quot;Logo for N.Y\n============\n\nThis logo was generated by MarkMaker at http://emblemmatic.org/markmaker/ and may be composed of elements designed by others.\n\nThe font is Monsieur La Doulaise Regular designed by Sudtipos and released under the OFL license via Google Fonts: https://www.google.com/fonts/specimen/Monsieur%20La%20Doulaise. The font includes this copyright statement: Copyright (c) 2006 Alejandro Paul (sudtipos@sudtipos.com), with Reserved Font Name \\\&quot;MonsieurLaDoulaise\\\n\nMarkMaker uses semantic data from the Princeton University WordNet database http://wordnet.princeton.edu and font descriptions from Google Fonts https://www.google.com/fonts.&quot;}" fill="#181c1c" fill-rule="nonzero" stroke="none" stroke-width="1" stroke-linecap="butt" stroke-linejoin="miter" stroke-miterlimit="10" stroke-dasharray="" stroke-dashoffset="0" font-family="none" font-weight="none" font-size="none" text-anchor="none" style="mix-blend-mode: normal">
			<g data-paper-data="{&quot;elementType&quot;:&quot;logo&quot;}">
				<g data-paper-data="{&quot;elementType&quot;:&quot;text&quot;}">
					<g data-paper-data="{&quot;baseline&quot;:99.5,&quot;elementType&quot;:&quot;row&quot;}">
						<g data-paper-data="{&quot;baselineProportion&quot;:0.7158273381294964,&quot;fontSize&quot;:100,&quot;baseline&quot;:99.5,&quot;elementType&quot;:&quot;word&quot;}">
							<path d="M439.86463,167.49023c0,0 -0.78189,-1.79874 -2.34566,-5.39621c-1.56377,-3.59747 -5.18107,-7.29165 -10.8519,-11.08254c-5.67083,-3.79088 -12.83868,-5.68633 -21.50356,-5.68633c-8.66488,0 -17.29125,1.77939 -25.8791,5.33818c-8.58786,3.55879 -16.25918,7.89123 -23.01397,12.99732c-6.75479,5.10609 -13.6258,11.99157 -20.61303,20.65645c-6.98723,8.66488 -12.84081,16.55611 -17.56076,23.67369c-4.71995,7.11758 -9.86557,16.01455 -15.43688,26.69092c-5.5713,10.67637 -9.71955,19.10915 -12.44474,25.29835c-2.72519,6.1892 -6.25112,14.27384 -10.57779,24.25393c-4.32667,9.98008 -7.03504,16.20797 -8.12512,18.68365l-5.63245,16.94293c-0.57187,0.46419 -1.16727,0.69628 -1.78619,0.69628c-0.61892,0 -1.13016,-0.46419 -1.53371,-1.39257l0.66648,-4.87399c0.95556,-2.78514 1.69312,-12.30103 2.21269,-28.54768l0.41451,-8.12332c1.01824,-25.06626 2.42594,-42.47338 4.22308,-52.22137c6.19924,-34.50479 14.7421,-59.88051 25.62857,-76.12716c-2.63041,0 -7.39392,5.41555 -14.29054,16.24665l-3.38105,5.57028c-25.18569,52.76293 -46.17888,91.67752 -62.97958,116.74378c11.52322,8.35542 19.36986,17.32976 23.53992,26.92302c5.17895,11.91421 3.59865,22.78399 -4.74089,32.60935c-8.33954,9.82535 -24.00324,16.59479 -46.99109,20.30831l-1.10977,-2.55304c20.02777,-3.40406 33.69845,-9.86404 41.01203,-19.37993c7.31359,-9.51589 8.44817,-20.07622 3.40374,-31.68097c-3.36295,-7.7365 -9.29916,-15.16354 -17.80863,-22.28112c-7.82499,10.8311 -16.41667,19.18652 -25.77504,25.06626c-9.35836,5.87974 -19.99465,8.81961 -31.90886,8.81961c-11.91421,0 -21.79323,-1.5473 -29.63708,-4.6419c-9.88285,3.24933 -20.31719,4.87399 -31.30302,4.87399c-10.98583,0 -20.17528,-1.74071 -27.56835,-5.22214c-7.39307,-3.48142 -12.26664,-7.92991 -14.6207,-13.34546c-3.22844,-7.42704 -1.40122,-14.97013 5.48163,-22.62926c6.88286,-7.65913 18.53525,-13.42283 34.95718,-17.29108c1.66263,-10.05745 6.40793,-18.45155 14.23589,-25.18231c7.82797,-6.73075 18.16324,-10.09613 31.00583,-10.09613c7.89123,0 14.494,1.66335 19.80832,4.99004c5.31432,3.32669 9.18214,7.77518 11.60347,13.34546c2.42133,5.57028 3.35251,11.45002 2.79354,17.63922c15.89642,4.17771 29.47173,10.13481 40.72591,17.87131c0.69977,-1.23784 3.23974,-5.18345 7.61991,-11.83684c4.38017,-6.65339 11.47037,-19.26388 21.27059,-37.83148c9.80023,-18.5676 17.79893,-34.42742 23.99612,-47.57947l9.62877,-19.49598c11.39806,-19.34125 23.46471,-30.55917 36.19996,-33.65377c1.70203,0 2.73801,0.42551 3.10793,1.27652c0.36992,0.85101 0.15796,1.43125 -0.63591,1.74071c-6.17595,2.16622 -10.76618,7.00153 -13.77068,14.50594c-3.0045,7.5044 -6.20772,17.75527 -9.60966,30.75259c-3.40194,12.99732 -5.93092,25.06626 -7.58693,36.20682c-4.2139,26.61356 -6.48272,44.17541 -6.80645,52.68556l0.06012,4.4098c0.06726,0.15473 0.33298,0.23209 0.79717,0.23209l2.00835,-2.32095c1.76963,-3.40406 4.43924,-8.74224 8.00881,-16.01455c3.56958,-7.27231 6.48478,-13.11337 8.74561,-17.52317c2.26083,-4.4098 5.34757,-10.21218 9.26024,-17.40712c3.91267,-7.19494 7.37448,-13.11337 10.38543,-17.75527c3.01095,-4.6419 6.76872,-10.05745 11.2733,-16.24665c4.50458,-6.1892 8.78369,-11.29529 12.83733,-15.31827c4.05364,-4.02298 8.71949,-8.23937 13.99755,-12.64918c5.27806,-4.4098 10.55098,-7.85255 15.81877,-10.32823c12.36549,-5.72501 24.11852,-8.58751 35.25908,-8.58751c11.14056,0 20.26266,2.47568 27.36631,7.42704c7.10365,4.95136 12.52191,11.7208 16.25479,20.30831c3.73288,8.58751 3.02895,18.18077 -2.1118,28.77978c-5.14074,10.599 -12.69139,19.30257 -22.65195,26.11069c-9.96056,6.80812 -19.6601,10.21218 -29.09863,10.21218c-11.14056,0 -18.99765,-5.26082 -23.57126,-15.78246c-3.16118,-7.27231 -2.96874,-14.66067 0.57732,-22.16507c3.54606,-7.5044 10.3614,-12.64918 20.44602,-15.43432l1.70517,2.32095c-9.26393,3.24933 -15.54442,8.20069 -18.84148,14.85408c-3.29706,6.65339 -3.53315,13.22941 -0.70827,19.72807c3.90103,8.97434 9.95188,13.46151 18.15257,13.46151c8.20069,0 16.78184,-3.7522 25.74344,-11.25661c8.9616,-7.5044 15.74705,-16.63347 20.35635,-27.38721c4.60929,-10.75373 5.35017,-19.72807 2.22262,-26.92302zM137.77534,88.69398l1.90695,2.78514c-22.65818,3.40406 -38.82666,12.57181 -48.50545,27.50326c-9.67878,14.93144 -11.22248,29.97894 -4.63109,45.14248c3.90103,8.97434 10.39561,16.44006 19.48374,22.39717c9.08813,5.9571 20.43353,9.63194 34.03618,11.02451c-1.52012,-2.78514 -2.61648,-4.95136 -3.28907,-6.49866c-3.36295,-7.7365 -4.67739,-15.74378 -3.94331,-24.02183c0.73408,-8.27805 3.2845,-15.93719 7.65125,-22.9774c4.36675,-7.04021 11.12834,-12.84259 20.28475,-17.40712c9.15642,-4.56453 19.18886,-6.8468 30.09732,-6.8468c10.90846,0 19.47899,1.74071 25.71159,5.22214c6.23259,3.48142 10.66044,8.23937 13.28355,14.27384c2.6231,6.03447 2.91175,12.57181 0.86595,19.61203c-2.0458,7.04021 -6.0997,13.73229 -12.16169,20.07622c-6.06199,6.34393 -15.03179,11.60475 -26.9094,15.78246c-11.87761,4.17771 -25.47555,6.26656 -40.79382,6.26656h-1.39257c9.12108,13.15205 23.35224,19.72807 42.69349,19.72807c9.90272,0 20.46164,-2.93987 31.67677,-8.81961c11.21512,-5.87974 21.47189,-14.85408 30.77031,-26.92302l2.19968,1.85676c-2.89316,4.02298 -6.83921,8.47147 -11.83812,13.34546c-4.99892,4.87399 -12.54417,9.9414 -22.63577,15.20222c-10.09159,5.26082 -20.16611,7.89123 -30.22356,7.89123c-22.28112,0 -38.84996,-7.5044 -49.70653,-22.51321c-14.8607,-1.08311 -27.37833,-4.87399 -37.55289,-11.37265c-10.17456,-6.49866 -17.38049,-14.62198 -21.61781,-24.36997c-6.79317,-15.62773 -5.31333,-31.17809 4.43951,-46.65109c9.75284,-15.473 26.45285,-25.37572 50.10005,-29.70816M145.74728,194.06511l1.9472,3.94561h3.24933c13.9257,0 26.49097,-1.97281 37.69582,-5.91842c11.20485,-3.94561 19.78442,-8.85829 25.73873,-14.73803c5.95431,-5.87974 10.01657,-12.10762 12.18678,-18.68365c2.17021,-6.57602 2.11192,-12.49445 -0.17489,-17.75527c-2.28681,-5.26082 -6.29089,-9.39985 -12.01225,-12.41708c-5.72136,-3.01723 -12.91447,-4.52585 -21.57935,-4.52585c-13.15205,0 -24.15843,3.86825 -33.01915,11.60475c-8.86072,7.7365 -14.45711,17.0203 -16.78919,27.8514c-2.33208,10.8311 -1.41309,21.04328 2.75697,30.63654M163.24812,269.03179c-11.06634,-2.32095 -22.3632,-3.48142 -33.89058,-3.48142c-11.52738,0 -22.90857,1.3152 -34.14357,3.94561c-1.12422,7.7365 -0.00485,15.473 3.3581,23.2095c4.84265,11.14056 13.28138,19.34125 25.31618,24.60207c10.91229,-4.79663 19.83347,-11.68211 26.76354,-20.65645c6.93007,-8.97434 11.12885,-18.18077 12.59633,-27.6193M95.39332,293.40176c-3.29569,-7.58177 -4.53616,-15.2409 -3.72141,-22.9774c-13.79152,3.86825 -23.76541,9.39985 -29.92166,16.59479c-6.15625,7.19494 -7.78831,14.11911 -4.89617,20.7725c2.01777,4.6419 6.16317,8.3941 12.43618,11.25661c6.27302,2.8625 14.16747,4.29376 23.68337,4.29376c9.51589,0 18.50888,-1.46993 26.97894,-4.4098c-11.53018,-5.87974 -19.7166,-14.38989 -24.55925,-25.53045M129.90234,319.3964c6.66664,2.16622 14.25503,3.24933 22.76518,3.24933c22.43585,0 41.41151,-10.98583 56.92698,-32.95749c-11.05903,-8.35542 -23.88421,-14.54462 -38.47553,-18.5676c-1.17823,9.74799 -5.34337,19.03179 -12.49544,27.8514c-7.15206,8.81961 -16.72579,15.62773 -28.72119,20.42436M95.86007,266.71084c11.67897,-2.32095 23.28215,-3.48142 34.80954,-3.48142c11.52738,0 22.52489,1.00574 32.99252,3.01723c0.55897,-6.1892 -0.17043,-11.60475 -2.18821,-16.24665c-4.23732,-9.74799 -12.77728,-14.62198 -25.61987,-14.62198c-10.98583,0 -19.94195,2.97855 -26.86838,8.93566c-6.92642,5.9571 -11.30162,13.42283 -13.12561,22.39717" data-paper-data="{&quot;elementType&quot;:&quot;letter&quot;,&quot;baseline&quot;:99.5,&quot;baselineProportion&quot;:0.8277870216306156,&quot;fontSize&quot;:100}" />
							<path d="M316.82976,318.00383c-0.73985,-1.70203 -0.25528,-3.79088 1.45372,-6.26656c1.70899,-2.47568 3.68528,-3.71352 5.92887,-3.71352c2.24358,0 3.80256,1.00574 4.67693,3.01723c1.00889,2.32095 0.60839,4.60322 -1.2015,6.8468c-1.80988,2.24358 -3.83662,3.36538 -6.0802,3.36538c-2.24358,0 -3.83619,-1.08311 -4.77782,-3.24933z" data-paper-data="{&quot;elementType&quot;:&quot;letter&quot;,&quot;baseline&quot;:5,&quot;baselineProportion&quot;:0.8771929824561399,&quot;fontSize&quot;:100}" />
							<path d="M329.76767,411.30602c-4.48717,0 -7.84053,-2.55304 -10.06008,-7.65913c-2.21955,-5.10609 -2.16859,-10.32823 0.15287,-15.66641c2.32146,-5.33818 6.83606,-10.79242 13.54381,-16.3627c10.62338,-8.66488 25.44817,-18.87706 44.47436,-30.63654c0.88133,-0.46419 1.5642,-0.85101 2.0486,-1.16047c1.48701,-2.63041 3.78651,-7.04021 6.89853,-13.22941c3.11201,-6.1892 5.89261,-11.45002 8.3418,-15.78246c-9.95741,9.12907 -17.6439,13.6936 -23.05945,13.6936c-5.41555,0 -8.96406,-1.93412 -10.64554,-5.80237c-2.28681,-5.26082 1.07768,-13.53887 10.09347,-24.83416c2.87295,-3.71352 4.05721,-6.15052 3.55276,-7.31099c-0.50444,-1.16047 -1.37558,-1.74071 -2.61342,-1.74071c-2.63041,0 -6.19442,1.85676 -10.69204,5.57028c-4.49762,3.71352 -7.3183,6.03447 -8.46204,6.96285c-1.14375,0.92838 -2.80387,2.35963 -4.98036,4.29376c-2.1765,1.93412 -3.71552,3.28801 -4.61706,4.06166l-2.10873,-3.24933c15.14469,-13.9257 25.73427,-20.88855 31.76874,-20.88855c4.02298,0 7.00973,2.24358 8.96024,6.73075c2.08503,4.79663 -1.41398,12.76522 -10.49702,23.90578c-3.02768,3.71352 -4.27249,6.1892 -3.73441,7.42704c0.3363,0.77365 1.51019,1.16047 3.52168,1.16047c4.6419,0 10.43111,-3.05592 17.36764,-9.16775c6.93653,-6.11183 12.34257,-12.18499 16.21812,-18.21946c5.60476,-8.81961 8.83265,-13.22941 9.68367,-13.22941c0.85101,0 2.26711,0.23209 4.24828,0.69628c1.98117,0.46419 3.08946,0.96706 3.32487,1.50862c0.23541,0.54155 -0.30963,1.77939 -1.63511,3.71352c-1.32548,1.93412 -9.68566,16.51743 -25.08055,43.74991c11.80059,-7.7365 20.85123,-14.23516 27.15194,-19.49598c6.30071,-5.26082 9.94557,-8.35542 10.93458,-9.2838l1.97752,3.48142c-5.21411,4.02298 -8.85392,7.04021 -10.91942,9.0517c-7.93896,6.65339 -18.87842,14.23516 -32.8184,22.74531c-12.9457,22.90004 -24.5606,41.1195 -34.84472,54.65837c-10.28412,13.53887 -19.44915,20.30831 -27.49511,20.30831zM326.10219,383.91881c0,0 -0.67198,0.81233 -2.01593,2.437c-1.34395,1.62466 -2.28853,3.94561 -2.83374,6.96285c-0.54521,3.01723 -0.07796,6.22788 1.40174,9.63194c1.4797,3.40406 3.92158,5.10609 7.32564,5.10609c8.35542,0 23.86741,-20.73382 46.53597,-62.20146c-21.67019,13.15205 -34.81804,21.97166 -39.44355,26.45883c-4.62551,4.48717 -8.28222,8.35542 -10.97012,11.60475" data-paper-data="{&quot;elementType&quot;:&quot;letter&quot;,&quot;baseline&quot;:17,&quot;baselineProportion&quot;:0.3008849557522124,&quot;fontSize&quot;:100}" />
						</g>
					</g>
				</g>
			</g>
    </g>
</svg>